# xmcd
#
# Track frame offsets:
#	150
#	17075
#	29045
#
# Disc length: 638 seconds
#
# Revision: 0
# Processed by: cddbd v1.5.2PL0 Copyright (c) Steve Scherf et al.
# Submitted via: audiograbber 1.83.01
#
DISCID=1f027c03
DTITLE=Western Union - Danke
DYEAR=1992
DGENRE=Country
TTITLE0=Western Union-Danke
TTITLE1=Western Union-An meinen Nächsten
TTITLE2=Western Union-Unter allen Männern bin ich der KKW
EXTD=
EXTT0=
EXTT1=
EXTT2=
PLAYORDER=
